# xmcd CD database file
#
# Track frame offsets:
#	150
#	29180
#	48175
#	62160
#	78087
#	92817
#	109147
#	130872
#	151365
#	162465
#	177282
#	191120
#
# Disc length: 2773 seconds
#
# Revision: 0
# Processed by: cddbd v1.5PL3 Copyright (c) Steve Scherf et al.
# Submitted via: CDex 1.50Beta7
#
DISCID=a10ad30c
DTITLE=SION - Arrive On Arrival
DYEAR=2003
DGENRE=Slow Rock
TTITLE0=キャスト
TTITLE1=お前はどこだ
TTITLE2=はじめまして
TTITLE3=低い空
TTITLE4=ガラクタ
TTITLE5=日の当たる場所へ
TTITLE6=程遠く
TTITLE7=ある休日
TTITLE8=11月の空に
TTITLE9=すばらしい世界を
TTITLE10=お前が好き
TTITLE11=ここからさ
EXTD=YEAR: 2003
EXTT0=
EXTT1=
EXTT2=
EXTT3=
EXTT4=
EXTT5=
EXTT6=
EXTT7=
EXTT8=
EXTT9=
EXTT10=
EXTT11=
PLAYORDER=
